<svg width="512" height="512" viewBox="0 0 512 512" fill="none" xmlns="http://www.w3.org/2000/svg">
  <defs>
    <linearGradient id="ps_ring" x1="128" y1="112" x2="396" y2="416" gradientUnits="userSpaceOnUse">
      <stop stop-color="#8B5CF6"/>
      <stop offset="0.52" stop-color="#22D3EE"/>
      <stop offset="1" stop-color="#34D399"/>
    </linearGradient>
    <radialGradient id="ps_core" cx="0" cy="0" r="1" gradientUnits="userSpaceOnUse" gradientTransform="translate(256 246) rotate(90) scale(220)">
      <stop stop-color="#0B1220"/>
      <stop offset="1" stop-color="#070B12"/>
    </radialGradient>
    <filter id="ps_glow" x="-60" y="-60" width="632" height="632" filterUnits="userSpaceOnUse" color-interpolation-filters="sRGB">
      <feGaussianBlur stdDeviation="14" result="blur"/>
      <feColorMatrix in="blur" type="matrix" values="1 0 0 0 0  0 1 0 0 0  0 0 1 0 0  0 0 0 0.32 0" result="glow"/>
      <feMerge>
        <feMergeNode in="glow"/>
        <feMergeNode in="SourceGraphic"/>
      </feMerge>
    </filter>
    <filter id="ps_soft" x="-20" y="-20" width="552" height="552" filterUnits="userSpaceOnUse" color-interpolation-filters="sRGB">
      <feGaussianBlur stdDeviation="6" result="blur"/>
      <feColorMatrix in="blur" type="matrix" values="1 0 0 0 0  0 1 0 0 0  0 0 1 0 0  0 0 0 0.20 0" result="soft"/>
      <feMerge>
        <feMergeNode in="soft"/>
        <feMergeNode in="SourceGraphic"/>
      </feMerge>
    </filter>
  </defs>

  <!-- Outer neon ring -->
  <g filter="url(#ps_glow)">
    <circle cx="256" cy="256" r="190" stroke="url(#ps_ring)" stroke-width="18" opacity="0.95"/>
    <circle cx="256" cy="256" r="166" stroke="rgba(255,255,255,0.10)" stroke-width="2"/>
  </g>

  <!-- Core badge -->
  <circle cx="256" cy="256" r="160" fill="url(#ps_core)"/>

  <!-- Vapor haze at the top (subtle) -->
  <g filter="url(#ps_soft)" opacity="0.9">
    <path d="M146 176c30-24 56-6 76 10 18 14 38 18 54 6 18-14 40-20 62-10 28 14 44 34 28 56-14 20-52 26-92 12-28-10-58-10-88 0-38 12-76 8-92-10-18-22 2-48 44-64z" fill="rgba(255,255,255,0.08)"/>
    <path d="M178 150c18-14 34-4 48 6 12 10 26 12 36 4 12-10 26-14 40-8 18 10 28 22 18 36-10 14-34 18-60 8-18-8-38-8-56 0-24 8-48 6-58-6-12-14 2-30 32-40z" fill="rgba(34,211,238,0.08)"/>
  </g>

  <!-- Monogram PS -->
  <g filter="url(#ps_glow)">
    <!-- P -->
    <path d="M166 344V176h80c40 0 68 22 68 56 0 36-30 58-72 58h-28v54h-48zm48-94h28c18 0 30-8 30-22 0-14-12-22-30-22h-28v44z" fill="url(#ps_ring)"/>
    <!-- S -->
    <path d="M336 340c-18 6-42 8-62 6-30-4-56-18-56-44h46c2 10 14 16 30 18 16 2 34 0 42-6 6-4 8-10 6-14-2-8-16-10-36-14-34-6-80-14-80-58 0-34 34-54 78-56 30-2 62 4 80 18 10 8 16 18 16 30h-46c0-6-4-10-10-12-10-4-26-6-40-4-14 2-28 8-28 18 0 10 16 12 36 16 36 6 82 14 82 58 0 24-14 40-38 48z" fill="url(#ps_ring)"/>
  </g>

  <!-- Micro highlight -->
  <circle cx="330" cy="190" r="6" fill="#22D3EE" opacity="0.85"/>
</svg>
